<svg xmlns="http://www.w3.org/2000/svg" width="218.298" height="248.09" viewBox="0 0 218.298 248.09">
  <g id="Group_1" data-name="Group 1" transform="translate(-759 -527)">
    <g id="Group_3" data-name="Group 3" transform="translate(196.298 500.855)" opacity="0.75">
      <g id="Group_2" data-name="Group 2">
        <path id="Ellipse_8" data-name="Ellipse 8" d="M84.5,0A84.5,84.5,0,1,1,0,84.5,84.5,84.5,0,0,1,84.5,0Z" transform="translate(612 67)" fill="#4682b4"/>
        <path id="Path_1" data-name="Path 1" d="M649.661,426.565,634.286,412.5l-3.925-11.122-2.944-9.159-1.963-3.6L612.042,373.9v-8.178l7.2-5.234,17.665-5.561,6.215,5.561,6.542,1.636,1.636,6.87-1.636,1.963L651.3,373.9h6.87l6.542,3.271,5.234,2.944,1.963,4.907-1.963,3.6-5.234,3.6v5.888l-4.253,3.271-4.253,1.636-2.617,2.944L651.3,412.5l-3.925,1.636V416.1Z" transform="translate(14 -200)" fill="#3ea03e"/>
        <path id="Path_2" data-name="Path 2" d="M719.338,418.714l1.963-6.542,1.963-4.253v-4.253l1.963-6.215,1.309-1.636,2.29-3.925V373.244h-3.6l-1.963-2.617h-3.925l-3.925,2.617H704.944l-3.271-5.561-1.963-2.617-2.29-3.925V355.58l2.29-6.87-2.29-5.561,10.141-10.8,2.944-2.944,4.907-1.963H721.3l3.925-1.963h3.6l2.944,1.963v1.963l2.29,2.944,4.58,1.636,2.29,1.963,2.617-1.963h3.925a2.237,2.237,0,0,1,2.617,0c1.309.981,4.253,0,4.253,0s2.617-3.6,0-4.58-6.87,0-6.87,0l-3.925-3.925s1.636-5.888,0-4.253a13.869,13.869,0,0,0-2.617,4.253L737,322.868l-5.234-5.234L737,325.485l-5.234-4.253-5.234-3.6h-3.271l-1.963,3.6-1.963,4.253h-7.2l-1.636-7.851s-.981-1.963,0-2.29,3.925.654,4.907,0a25.562,25.562,0,0,1,3.925-1.636l-3.925-2.944,1.636-1.963,2.29-1.636h-3.925v-3.6l-4.907-2.29L712.136,298s.981-1.963,1.636,0,6.542,1.963,5.561,3.271,0,3.6,0,3.6h3.925v-1.309l1.963-2.29h1.309l2.29,3.6,2.944-3.6V298H728.82v-4.58h-2.29l1.214,6.193h-2.522l-1.963-.687L720.07,298a25.565,25.565,0,0,1-1.833-2.395c-.115-.344-.786-1.277,1.1-2.185s1.7-.335,1.963-1.137-.148-3.207,0-3.551,1.981-2.749,2.668-2.749.551,0,2.566.8,6.024,1.947,6.024,1.947,1.167,2.863,1.5,2.52,1.707-2.52,1.707-2.52l2.873,2.52,4.907,4.352,5.277,7.956,2.062,2.352,6.07,10.881,3.436,8.684,1.6,10.468.687,2.724-1.718-1.145,1.718,5.618,1.374,3.086v7.788l-1.374,5.039-2.291-6.643s-2.405-4.925-2.863-6.185-3.187-5.727-3.187-5.727,1.927,5.727,2.042,6.185,2.176,3.78,2.176,4.123-1.145,3.112,0,4.763,1.833,3.484,2.405,3.484,1.832,1.947,1.718,2.634,0,4.7,0,4.7l-1.718,6.07-2.405,4.81s-4.313,6.528-4.218,6.987-2.54,7.629-2.54,7.629l-4.33,5.561L737,407.919l-5.234,4.253-5.234,4.044Z" transform="translate(14 -200)" fill="#3ea03e"/>
        <path id="Path_3" data-name="Path 3" d="M705.23,273.39l-1.084,4v2.91a10.792,10.792,0,0,1-1.084,2.711,24.572,24.572,0,0,1-3.863.881c-.271,0-2.1.474-2.3.474a12.887,12.887,0,0,0-3.321,1.491c-2.1,1.152-3.253,1.355-3.863,2.169a14.257,14.257,0,0,1-2.508,2.508,18.654,18.654,0,0,1-2.846-1.762l-1.423-4.4a3.539,3.539,0,0,1,1.152-2.508,8.2,8.2,0,0,0,2.236-4.066,7.653,7.653,0,0,0-.61-2.779c-.339-1.017-3.253-3.456-3.727-4s.542-2.3.949-2.3,5.557.2,6.3,0,9.962,1.355,9.962,1.355Z" transform="translate(14 -200)" fill="#3ea03e"/>
        <path id="Path_4" data-name="Path 4" d="M706.044,290.538l3.456-2.984a6.839,6.839,0,0,0-.813-.881c-.339-.271-2.643-1.288-2.643-1.288h-2.3s-1.627,0-1.694.949a27.037,27.037,0,0,0,.678,4.2,22.389,22.389,0,0,0,2.44.473A1.391,1.391,0,0,0,706.044,290.538Z" transform="translate(14 -200)" fill="#63db77"/>
        <rect id="Rectangle_1" data-name="Rectangle 1" width="7.653" height="33.161" transform="translate(621.192 151.216) rotate(33.007)" fill="#07165a"/>
        <rect id="Rectangle_2" data-name="Rectangle 2" width="19.132" height="79.077" rx="7" transform="translate(605.799 165.552) rotate(33.007)" fill="#3b4a8a"/>
        <circle id="Ellipse_9" data-name="Ellipse 9" cx="59.308" cy="59.308" r="59.308" transform="translate(637.021 26.145) rotate(33.007)" fill="#3b4a8a"/>
        <circle id="Ellipse_10" data-name="Ellipse 10" cx="45.916" cy="45.916" r="45.916" transform="translate(640.771 43.789) rotate(33.007)" fill="#6eb76e"/>
        <text id="USA" transform="translate(622.271 119.011)" fill="#6c77a7" font-size="30" font-family="SegoeUI-Bold, Segoe UI" font-weight="700"><tspan x="0" y="0">USA</tspan></text>
        <g id="Group_1-2" data-name="Group 1" transform="translate(-1.927 -20.883)">
          <line id="Line_2" data-name="Line 2" x2="13" transform="translate(639.771 100.5)" fill="none" stroke="#707070" stroke-width="1"/>
          <line id="Line_3" data-name="Line 3" x2="13" transform="translate(623.771 100.5)" fill="none" stroke="#707070" stroke-width="1"/>
          <line id="Line_4" data-name="Line 4" x2="13" transform="translate(671.771 100.5)" fill="none" stroke="#707070" stroke-width="1"/>
          <line id="Line_5" data-name="Line 5" x2="13" transform="translate(655.771 100.5)" fill="none" stroke="#707070" stroke-width="1"/>
        </g>
      </g>
      <text id="Search..." transform="translate(612.851 266.235)" fill="#74a1c6" font-size="30" font-family="SegoeUI-Bold, Segoe UI" font-weight="700"><tspan x="0" y="0">Search...</tspan></text>
    </g>
  </g>
</svg>
